<svg xmlns="http://www.w3.org/2000/svg" version="1.1"><polyline points="3.0,1.5,3.0,9.5,3.5,17.5,3.5,26.0,3.5,34.0,3.5,42.0,3.5,50.0,3.5,58.0,4.0,66.0,4.0,74.0,4.0,82.0,4.0,90.0,4.0,98.0,4.0,106.0,4.0,114.0,4.0,122.0,3.5,130.5,3.5,138.5,4.0,146.5,4.0,154.5,4.0,162.5,4.0,170.5,4.0,178.5,4.0,186.5,4.0,194.5,4.0,202.5,4.0,210.5,3.5,218.5,3.5,226.5,4.0,234.5,4.0,242.5,4.0,250.0,3.5,258.0,3.0,266.0,3.0,274.5,2.5,282.5,2.5,290.5,2.5,298.5,3.0,307.0,3.5,314.5,3.5,322.5,3.5,330.5,3.0,339.0,3.0,347.0,2.5,355.0,2.0,363.0,2.0,371.0,2.0,379.0,2.0,387.0,1.5,394.5,1.0,403.0,1.5,411.0,2.0,419.0,2.5,427.0,2.5,435.0,2.5,442.5,3.0,451.0,3.0,459.0,3.0,467.0,3.0,475.0,3.0,483.5,3.5,491.0,3.5,499.0,3.5,507.0,5.5,513.5,13.5,513.0,21.5,513.0,30.0,512.5,38.5,512.5,46.0,512.5,54.0,512.5,62.0,512.5,70.0,512.5,78.0,512.5,85.5,512.5,93.5,513.0,101.5,513.5,109.0,514.0,117.0,514.5,125.0,514.5,133.0,514.5,141.0,514.5,148.5,514.5,156.0,514.0,164.0,514.0,172.0,514.0,180.0,513.5,188.0,513.0,196.0,513.0,203.5,512.5,211.5,512.5,219.5,513.0,228.0,513.0,236.5,512.5,245.0,512.5,253.5,513.0,262.0,512.5,270.0,512.5,278.5,512.5,286.5,512.0,295.0,512.0,302.5,512.0,310.5,512.5,318.0,513.0,326.5,513.5,334.5,513.5,342.5,513.5,350.0,513.5,358.0,513.5,366.0,513.0,373.5,513.0,381.5,513.0,390.0,513.0,398.0,513.0,406.5,513.0,414.5,513.0,422.5,513.0,430.0,513.0,438.0,513.0,446.0,513.0,454.0,513.0,462.0,513.0,470.0,513.0,478.0,513.5,486.0,513.5,494.0,513.0,502.5,513.5,510.5,513.0" stroke="black" stroke-width="2" fill="none" />
<polyline points="307.5,372.5,300.0,379.5" stroke="black" stroke-width="2" fill="none" />
<polyline points="298.5,376.5,290.5,377.0" stroke="black" stroke-width="2" fill="none" />
<polyline points="290.5,386.0,282.5,393.5,274.5,401.0,266.0,409.0" stroke="black" stroke-width="2" fill="none" />
<polyline points="260.5,408.0,268.5,400.0,276.0,393.5,284.0,386.0,291.5,379.0,299.5,371.5,307.5,364.0" stroke="black" stroke-width="2" fill="none" />
<polyline points="307.0,356.5,299.0,364.0,291.5,371.5,284.0,379.0,276.0,386.0,268.0,393.0,260.5,400.5,252.5,408.0" stroke="black" stroke-width="2" fill="none" />
<polyline points="244.5,409.0,252.5,408.5,260.0,408.0,267.5,407.5" stroke="black" stroke-width="2" fill="none" />
<polyline points="245.0,399.0,253.0,391.5,260.5,384.0,268.0,376.5,275.5,369.0,283.0,361.5,291.0,354.0,298.5,345.5,306.0,338.0,314.0,330.5,322.0,323.0" stroke="black" stroke-width="2" fill="none" />
<polyline points="321.5,314.5,313.5,322.0,306.0,329.5,298.5,336.5,291.0,344.0,284.0,352.0,276.0,359.5,268.0,368.0,261.0,376.0,253.5,383.5,245.5,391.5,237.0,399.0" stroke="black" stroke-width="2" fill="none" />
<polyline points="237.0,402.5,244.5,402.0,252.0,401.5,260.0,400.0,268.5,399.0,276.5,398.5,284.0,397.5" stroke="black" stroke-width="2" fill="none" />
<polyline points="284.5,401.5,276.5,402.0,268.5,403.0,260.0,403.0,252.0,404.0,243.5,404.5,235.5,405.5" stroke="black" stroke-width="2" fill="none" />
<polyline points="243.5,405.5,251.5,398.0,259.5,391.5,267.5,384.5,274.5,377.5,282.0,370.5,290.5,364.0,299.5,356.5,307.5,349.5" stroke="black" stroke-width="2" fill="none" />
<polyline points="306.5,351.5,298.5,352.5,291.0,353.5,283.5,354.0,275.5,354.0,268.0,355.0,260.0,355.5,251.5,355.5,244.0,355.5,236.0,356.0,228.0,356.0,220.5,355.5,212.5,356.0,204.5,356.5" stroke="black" stroke-width="2" fill="none" />
<polyline points="210.0,352.5,218.0,352.5,226.5,352.5" stroke="black" stroke-width="2" fill="none" />
<polyline points="235.5,355.0,243.0,354.5,250.5,353.5,258.5,352.5,266.0,352.0,274.0,351.5" stroke="black" stroke-width="2" fill="none" />
<polyline points="282.5,353.0,290.5,352.5,298.5,352.0" stroke="black" stroke-width="2" fill="none" />
<polyline points="298.5,344.5,290.0,345.0,281.5,345.0" stroke="black" stroke-width="2" fill="none" />
<polyline points="281.5,335.5,289.5,335.5" stroke="black" stroke-width="2" fill="none" />
<polyline points="298.0,326.5,306.0,331.5,314.0,329.0,322.0,322.0" stroke="black" stroke-width="2" fill="none" />
<polyline points="321.0,305.0,313.5,312.5,306.0,320.5,298.5,329.0,290.5,337.5,283.0,346.0,275.5,353.5,267.5,361.5,259.5,369.0,252.0,376.0,244.0,383.5,236.0,391.5" stroke="black" stroke-width="2" fill="none" />
<polyline points="227.5,392.0,235.0,384.5,243.0,377.0,251.0,369.5,259.0,361.5,267.0,353.5,274.5,345.5,282.5,337.5,290.5,329.5,298.5,321.5,306.5,313.5,314.0,306.0,322.0,298.5" stroke="black" stroke-width="2" fill="none" />
<polyline points="324.0,301.5,315.5,302.5,307.5,302.5,299.0,303.0,291.0,303.5,282.5,303.5,274.0,303.5,266.0,303.5,258.0,304.5,250.0,305.5,242.0,306.0,234.5,306.5,226.5,307.5,218.5,308.0,210.5,308.5,202.5,309.0,194.5,309.5,186.0,310.0" stroke="black" stroke-width="2" fill="none" />
<polyline points="189.5,313.5,196.5,306.0,204.0,299.0,211.5,291.5,219.0,284.0,227.0,276.5,235.0,269.5,243.0,263.0,251.0,256.0,258.5,248.5,267.0,240.5,275.5,233.0,283.5,225.0,292.0,217.0,299.5,209.5,307.5,202.0,315.0,195.0,323.0,187.5,331.0,179.5,338.5,171.5" stroke="black" stroke-width="2" fill="none" />
<polyline points="331.0,173.5,322.5,174.0,314.0,174.5,306.5,175.0,298.5,176.0,291.0,176.0,283.5,176.0,276.0,176.5" stroke="black" stroke-width="2" fill="none" />
<polyline points="282.0,169.0,290.0,168.5,298.5,168.0,306.5,167.0,314.0,166.5" stroke="black" stroke-width="2" fill="none" />
<polyline points="315.0,163.5,323.0,163.0,331.5,162.5,339.0,162.0" stroke="black" stroke-width="2" fill="none" />
<polyline points="338.0,162.5,329.5,163.5,321.5,164.0,313.5,164.0,305.5,165.0,297.5,165.5,290.0,166.5,282.5,166.5,274.5,166.5,266.5,167.0,258.5,167.5,250.5,168.0,242.5,168.5,234.5,168.5,227.0,169.0,219.5,170.0,211.5,171.0,203.5,172.0,195.0,172.5,187.0,173.5,179.0,174.0,171.0,174.5" stroke="black" stroke-width="2" fill="none" />
<polyline points="170.5,175.0,178.5,165.0,186.5,165.0" stroke="black" stroke-width="2" fill="none" />
<polyline points="188.0,168.5,180.0,168.5" stroke="black" stroke-width="2" fill="none" />
<polyline points="172.0,168.0,179.5,167.5,188.0,166.0,196.0,164.5,204.0,164.0,212.0,163.0,220.0,162.5,228.0,162.0,236.0,161.0,243.0,160.5,251.0,160.0,259.5,159.5,267.0,159.0,275.5,158.5,283.5,158.0,291.0,157.5,299.0,157.0,307.0,156.5,314.5,156.0,322.5,155.5,330.5,155.5,338.0,155.0" stroke="black" stroke-width="2" fill="none" />
<polyline points="347.0,149.5,339.0,156.5,331.5,164.0,323.5,171.0,316.0,178.0,308.0,185.5,299.5,193.0,290.5,200.5,282.0,208.0,274.5,215.5,266.5,222.5,258.5,230.0,250.0,238.0,241.5,245.5,233.5,253.0,225.0,260.5,218.0,268.0,210.5,275.5,203.0,283.0,195.5,290.5" stroke="black" stroke-width="2" fill="none" />
<polyline points="195.5,288.0,203.0,287.5,211.0,287.0,219.0,286.0,227.5,285.0,235.0,284.0,243.0,283.0,251.0,282.5,259.0,282.5,267.0,282.5,275.5,282.0,283.5,281.5,292.0,281.5,300.5,281.0,308.0,280.0,316.0,280.0,324.0,279.0" stroke="black" stroke-width="2" fill="none" />
<polyline points="315.5,277.0,307.5,284.5,299.0,291.5,291.0,299.0,283.5,306.0,275.5,313.0,267.5,320.5,260.0,328.5,252.0,336.0,243.5,344.5,235.5,352.0,228.0,359.5,220.0,367.0,212.0,374.0" stroke="black" stroke-width="2" fill="none" />
<polyline points="213.0,370.5,221.0,370.0,229.0,369.5" stroke="black" stroke-width="2" fill="none" />
<polyline points="220.0,375.0,228.0,368.0,235.5,360.5,243.5,353.0,251.5,345.5,259.5,337.5,267.0,329.5,274.5,322.0,282.5,314.5,290.5,307.5,298.0,300.0,305.0,292.0,312.5,285.0" stroke="black" stroke-width="2" fill="none" />
<polyline points="314.5,292.0,306.5,300.0,298.5,307.0,290.5,315.0,282.5,323.5,274.5,331.0,267.0,338.5,259.5,346.0,252.0,353.0,244.5,360.5,237.0,368.0,228.5,375.5,220.0,383.0" stroke="black" stroke-width="2" fill="none" />
<polyline points="226.0,382.5,233.5,374.5,241.5,367.0,249.0,359.5,257.5,352.0,265.5,345.0,274.0,338.5,282.5,331.0,290.0,323.0,298.0,315.0,306.0,307.0,314.5,299.0,322.5,291.5" stroke="black" stroke-width="2" fill="none" />
<polyline points="323.0,292.5,322.0,295.0,324.0,303.0,322.0,312.0,324.0,323.0,322.0,331.0" stroke="black" stroke-width="2" fill="none" />
<polyline points="323.5,329.0,315.0,330.0,306.5,330.5" stroke="black" stroke-width="2" fill="none" />
<polyline points="306.5,336.5,298.0,336.5,289.5,337.0,281.0,337.5,273.0,338.0,265.5,338.5,258.0,339.5,250.0,339.5,242.5,340.5,235.0,341.0,227.0,341.0,219.5,341.0,212.0,341.5,204.5,342.0" stroke="black" stroke-width="2" fill="none" />
<polyline points="210.5,346.5,219.0,338.5,227.5,330.5,235.5,323.0,243.5,316.0,252.0,308.0,260.0,300.5,268.0,293.0,276.0,285.5,284.5,278.5,292.5,271.5,300.5,264.0,308.0,257.5,316.0,251.0,323.5,244.0,331.0,236.5,338.5,229.0" stroke="black" stroke-width="2" fill="none" />
<polyline points="340.5,235.5,332.5,243.0" stroke="black" stroke-width="2" fill="none" />
<polyline points="324.5,245.5,317.0,246.0,309.0,246.0,301.0,246.5,293.0,246.5,284.5,247.0,276.0,247.5,268.0,248.5,260.0,249.0,252.5,249.5,244.5,250.0,236.5,250.5,228.0,251.0,220.0,251.5,211.5,252.5,203.5,252.5,195.0,252.5,187.5,253.5" stroke="black" stroke-width="2" fill="none" />
<polyline points="187.0,251.5,195.0,259.5,204.5,262.5,202.0,270.0,197.0,282.0,194.0,289.5,190.0,299.5,191.0,307.5,202.0,317.0,204.0,319.0,212.0,319.0,220.0,315.0,227.5,321.0" stroke="black" stroke-width="2" fill="none" />
<polyline points="227.5,322.0,236.0,321.5,243.5,321.0,251.5,321.0,259.5,320.0,267.5,319.0,275.0,318.0,282.5,316.5" stroke="black" stroke-width="2" fill="none" />
<polyline points="286.0,318.0,277.0,326.0,277.0,334.0,275.0,342.5,275.5,350.0,275.5,358.0,273.0,366.0,276.0,374.0" stroke="black" stroke-width="2" fill="none" />
<polyline points="276.5,373.0,284.5,375.5,292.5,375.5" stroke="black" stroke-width="2" fill="none" />
<polyline points="297.5,368.5,289.0,369.0,281.0,369.5" stroke="black" stroke-width="2" fill="none" />
<polyline points="283.0,362.0,291.0,361.5,298.5,361.0" stroke="black" stroke-width="2" fill="none" />
<polyline points="300.0,360.0,303.5,365.0" stroke="black" stroke-width="2" fill="none" />
<polyline points="298.0,375.5,290.0,375.5,282.0,376.0,274.5,377.0,266.5,378.0,258.0,379.5,250.0,380.5,242.0,381.0,233.5,381.5,225.5,382.0,217.5,382.5,209.5,383.5" stroke="black" stroke-width="2" fill="none" />
<polyline points="211.5,378.0,219.5,378.0" stroke="black" stroke-width="2" fill="none" />
<polyline points="226.5,385.5,234.0,385.0,242.0,384.5,250.0,384.5,258.0,384.0,266.0,383.0,274.0,382.5,282.0,382.5" stroke="black" stroke-width="2" fill="none" />
<polyline points="275.5,366.0,268.5,366.5,261.0,367.0,253.5,367.5,245.5,367.5" stroke="black" stroke-width="2" fill="none" />
<polyline points="244.0,361.0,252.5,360.5,260.5,360.5,268.5,360.0,276.0,359.0" stroke="black" stroke-width="2" fill="none" />
<polyline points="276.5,375.0,268.0,376.0,260.0,376.5,252.0,377.5,244.5,378.5,237.0,379.0" stroke="black" stroke-width="2" fill="none" />
<polyline points="225.5,393.5,234.0,392.5,242.5,391.5,250.5,390.5,258.0,390.0,266.0,389.5,274.5,389.5,283.0,389.5,290.5,389.0" stroke="black" stroke-width="2" fill="none" />
<polyline points="291.0,394.0,283.0,394.5,274.5,395.0,266.5,395.0,258.5,395.5,250.5,395.5,241.5,395.5,233.0,396.5,224.5,397.0" stroke="black" stroke-width="2" fill="none" />
<polyline points="221.5,389.5,229.5,389.0,237.0,388.5,244.5,388.0,252.5,388.0,260.0,387.0,267.5,387.0,274.0,387.5,281.5,387.0,289.0,386.5" stroke="black" stroke-width="2" fill="none" />
<polyline points="275.0,342.5,267.0,343.0,258.5,344.0,250.0,344.5,241.5,345.5,233.5,346.0" stroke="black" stroke-width="2" fill="none" />
<polyline points="233.0,338.5,241.5,338.0,250.0,337.5,258.5,337.5,266.0,336.5,274.5,335.5" stroke="black" stroke-width="2" fill="none" />
<polyline points="275.5,337.5,278.5,342.5,278.0,350.5,278.0,358.5" stroke="black" stroke-width="2" fill="none" />
<polyline points="308.0,359.5,300.0,360.5,292.5,361.5,285.0,362.0,276.5,362.5,268.0,363.5,259.5,363.5,251.0,363.5,243.0,363.5,235.5,363.5,228.0,364.0,220.0,364.0,212.5,364.0,204.5,364.5" stroke="black" stroke-width="2" fill="none" />
<polyline points="204.0,364.5,211.5,357.0,219.5,349.5,227.5,341.5,235.5,334.0,243.5,327.0,251.5,320.0,260.0,313.0,268.5,305.5,276.5,298.0,284.5,290.5,293.0,283.0,301.0,275.5,309.0,267.5,317.0,260.0" stroke="black" stroke-width="2" fill="none" />
<polyline points="315.0,268.5,307.0,275.5,299.0,282.5,291.0,289.5,283.5,296.5,275.0,304.0,266.5,312.0,258.0,320.0,250.0,328.0,242.0,335.5,233.5,343.0,226.0,350.0,219.0,357.0,211.5,364.5" stroke="black" stroke-width="2" fill="none" />
<polyline points="211.5,361.5,220.0,361.0,228.0,360.5" stroke="black" stroke-width="2" fill="none" />
<polyline points="228.5,344.0,220.0,344.5" stroke="black" stroke-width="2" fill="none" />
<polyline points="213.0,341.0,221.0,333.0,229.5,325.0,237.5,317.5,244.5,309.5,252.0,302.0,259.5,294.5,267.5,287.5,275.0,280.0,283.0,272.5,291.0,264.5,299.5,257.0,308.0,249.0,316.0,241.0,324.5,234.0,332.5,227.0,341.0,220.0,349.0,213.0,357.5,205.5" stroke="black" stroke-width="2" fill="none" />
<polyline points="348.0,205.5,340.0,213.0,332.0,220.5,324.0,228.0,315.5,235.5,307.5,243.5,299.0,251.0,291.5,258.0,283.5,265.5,275.0,272.5,267.0,280.0,259.0,287.5,251.5,295.0,243.5,302.5,235.5,310.0,228.0,317.5,219.5,325.5,211.0,333.0" stroke="black" stroke-width="2" fill="none" />
<polyline points="202.5,332.0,210.5,324.5,218.5,317.5,226.5,310.5,234.5,302.5,243.0,295.0,251.0,287.5,258.5,280.5,266.0,273.5,274.5,265.5,282.5,257.5,290.5,249.5,298.0,241.5,306.0,234.0,314.0,227.0,322.0,219.5,330.0,212.5,338.5,205.5,347.0,198.5" stroke="black" stroke-width="2" fill="none" />
<polyline points="339.5,201.0,332.0,202.0,324.5,202.5" stroke="black" stroke-width="2" fill="none" />
<polyline points="327.5,202.0,331.5,210.0,331.0,218.0" stroke="black" stroke-width="2" fill="none" />
<polyline points="325.0,228.0,332.5,229.0,329.5,237.5" stroke="black" stroke-width="2" fill="none" />
<polyline points="316.0,254.0,308.5,255.0,300.5,255.0,293.0,255.5,285.5,256.0,277.5,256.5,269.5,257.0,261.0,257.5,253.0,258.0,244.5,259.0,236.0,259.5,228.0,259.5,220.0,260.0,211.5,260.0,203.5,260.0,195.5,260.0" stroke="black" stroke-width="2" fill="none" />
<polyline points="196.0,257.0,204.5,256.5,212.5,256.5,220.5,256.5,228.0,256.0,236.5,256.0,244.0,255.5,252.5,254.5,260.5,253.0,268.0,252.0,276.0,251.5,284.5,251.0,292.5,251.0,300.5,250.5,308.5,250.0,316.0,249.0" stroke="black" stroke-width="2" fill="none" />
<polyline points="307.5,273.0,299.0,273.0" stroke="black" stroke-width="2" fill="none" />
<polyline points="300.5,280.5,308.0,280.0" stroke="black" stroke-width="2" fill="none" />
<polyline points="316.0,287.0,308.0,287.5,300.0,288.0" stroke="black" stroke-width="2" fill="none" />
<polyline points="298.5,296.5,307.0,296.0,315.0,296.0" stroke="black" stroke-width="2" fill="none" />
<polyline points="323.0,305.0,314.5,305.5,306.5,305.5,298.0,306.0" stroke="black" stroke-width="2" fill="none" />
<polyline points="293.5,307.0,285.5,307.5,277.0,308.5,268.5,309.0,260.5,309.5,252.0,311.0,244.0,312.0,235.5,313.5,227.0,314.5,219.0,315.5" stroke="black" stroke-width="2" fill="none" />
<polyline points="222.5,318.5,221.0,326.5,228.0,334.5,228.5,342.5,228.5,350.0,230.5,357.5,231.0,365.5" stroke="black" stroke-width="2" fill="none" />
<polyline points="230.0,373.0,222.0,375.5,214.0,375.5,206.0,370.5" stroke="black" stroke-width="2" fill="none" />
<polyline points="204.0,373.5,212.0,372.5,220.5,372.0,229.0,371.5,237.0,371.5,245.0,371.0,253.0,371.0,260.5,370.5,268.0,370.5,276.5,370.0,285.0,369.5,292.5,369.0,300.0,368.5,308.0,367.0" stroke="black" stroke-width="2" fill="none" />
<polyline points="306.5,343.0,298.0,343.5,289.5,344.5,281.5,345.0,274.0,345.5,266.0,346.0,258.5,346.5,251.5,347.5,244.0,348.0,236.5,348.0,228.0,348.5,220.0,349.0,212.5,349.5,204.0,349.5" stroke="black" stroke-width="2" fill="none" />
<polyline points="195.0,332.5,203.0,332.0,210.5,332.0,218.5,331.5,226.5,331.0,235.0,330.5,242.5,329.5,250.5,329.0,259.0,328.5,267.5,328.0,275.5,327.5,283.5,327.0,291.0,326.0,299.0,325.5,307.0,325.5,315.0,325.5,323.5,324.5" stroke="black" stroke-width="2" fill="none" />
<polyline points="332.5,317.5,324.5,317.5,317.0,318.0,308.5,318.5,300.5,319.5,293.0,320.0,285.0,320.5,277.0,321.0,269.0,321.5,261.0,322.0,253.0,322.0,244.5,322.5,236.5,323.0,229.0,323.0,221.0,323.0,213.0,323.5,205.0,324.0,197.0,325.0,189.0,325.5" stroke="black" stroke-width="2" fill="none" />
<polyline points="190.0,324.5,197.5,329.5,205.5,331.5,213.5,328.0,211.5,337.0,205.5,345.5,205.5,353.5,205.5,361.5,205.5,371.5,214.0,379.5,222.0,391.5,227.0,399.5,236.0,407.5" stroke="black" stroke-width="2" fill="none" />
<polyline points="301.5,378.5,292.0,383.5,284.0,398.5,276.5,407.0,268.5,409.5,260.5,411.0,252.0,410.0,243.5,408.0,235.0,403.5,227.0,395.5,219.0,382.5,210.0,380.5,205.5,380.5,201.5,372.5,201.0,364.5,201.0,356.5,201.0,349.0,202.0,341.0,194.5,337.0,186.5,326.0" stroke="black" stroke-width="2" fill="none" />
<polyline points="191.0,325.0,195.5,333.0" stroke="black" stroke-width="2" fill="none" />
<polyline points="194.0,330.0,202.5,322.5,210.5,315.5,218.5,308.0,226.0,300.5,234.5,293.0,242.5,285.5,250.5,278.0,258.5,271.0,266.0,263.0,274.5,256.0,282.0,248.5,290.0,241.0,298.0,234.5,306.5,227.0,314.5,219.5,323.0,212.0,331.5,205.0,340.5,197.5,348.5,190.0" stroke="black" stroke-width="2" fill="none" />
<polyline points="345.5,190.0,348.0,198.0,351.5,210.5,343.5,218.5,343.5,226.5,343.5,234.0,341.5,243.0" stroke="black" stroke-width="2" fill="none" />
<polyline points="316.5,232.5,308.0,234.0,300.0,235.0,291.5,236.5,283.0,237.5,275.0,238.5,267.0,238.5,259.5,239.0,252.0,239.5,244.0,240.0,236.0,241.0,228.0,241.0,220.0,241.5,212.0,242.0,204.5,242.5,196.5,243.0" stroke="black" stroke-width="2" fill="none" />
<polyline points="194.5,244.0,203.0,236.5,211.5,229.5,220.0,222.0,228.5,215.0,236.5,207.0,244.5,200.0,252.5,193.0,260.5,186.0,267.5,178.5,275.5,171.0,284.0,163.0,292.0,155.5,300.0,147.5,307.5,140.0,315.5,132.0" stroke="black" stroke-width="2" fill="none" />
<polyline points="309.0,132.5,301.0,140.5,292.5,148.0,284.5,155.5,276.0,162.5,268.0,169.5,260.0,176.5,252.5,183.5,244.5,190.5,237.0,197.5,229.5,205.0,221.0,212.5,213.0,220.5,205.0,228.5,197.0,236.0,189.0,244.0" stroke="black" stroke-width="2" fill="none" />
<polyline points="187.0,247.0,195.0,246.5,203.5,246.0,211.5,245.0,219.5,244.5,228.0,244.0,235.5,243.5,243.5,242.5,252.0,241.5,260.5,240.5,268.5,239.5,276.5,239.0,284.5,238.5,292.0,239.0,300.0,239.0,308.0,238.5,315.5,238.5,324.0,238.5" stroke="black" stroke-width="2" fill="none" />
<polyline points="314.0,226.0,306.5,227.0,298.5,227.5,291.0,228.0,283.0,228.0,275.0,228.5,266.5,229.0,258.5,230.5,251.0,231.5,243.0,232.5,235.5,233.0,227.5,233.5,219.0,233.5,210.5,234.0,202.5,235.5,194.5,236.0" stroke="black" stroke-width="2" fill="none" />
<polyline points="188.0,236.0,196.5,229.0,204.5,222.0,213.0,215.0,221.0,208.0,229.5,200.5,237.0,193.0,245.0,184.5,253.0,176.5,261.0,169.0,268.5,161.5,276.5,154.5,285.5,147.5,293.5,140.0,302.0,132.5,309.5,125.0" stroke="black" stroke-width="2" fill="none" />
<polyline points="298.5,123.5,290.5,131.0,283.0,138.5,275.5,146.0,267.5,153.5,259.5,161.5,251.5,169.0,244.0,177.0,236.5,185.0,228.0,192.5,220.0,200.5,212.0,208.0,204.0,215.5,196.0,223.0,187.5,230.5" stroke="black" stroke-width="2" fill="none" />
<polyline points="184.5,230.0,192.5,233.0" stroke="black" stroke-width="2" fill="none" />
<polyline points="195.0,227.0,202.5,226.5,209.5,225.5,217.0,225.0,225.0,225.0,233.0,224.5,241.0,224.0,249.0,223.5,257.5,223.0,265.5,222.5,273.5,222.5,281.5,221.5,289.5,221.0,297.5,220.5,306.0,220.0,314.0,219.5" stroke="black" stroke-width="2" fill="none" />
<polyline points="316.0,216.5,324.0,216.5" stroke="black" stroke-width="2" fill="none" />
<polyline points="306.0,209.5,298.0,210.0" stroke="black" stroke-width="2" fill="none" />
<polyline points="289.5,208.5,281.5,209.5,273.0,210.0" stroke="black" stroke-width="2" fill="none" />
<polyline points="274.5,202.5,266.5,203.0" stroke="black" stroke-width="2" fill="none" />
<polyline points="257.5,195.0,265.5,195.0,273.5,194.0,281.5,193.0,289.5,192.0,298.0,191.5,306.5,190.5,315.0,190.0,324.0,189.0,333.0,188.5,341.0,188.0" stroke="black" stroke-width="2" fill="none" />
<polyline points="339.5,189.5,331.5,197.0,324.0,203.5,316.0,210.5,308.0,218.0,299.5,225.5,291.5,233.0,283.5,240.5,276.0,248.0,268.0,255.5,260.0,262.5,252.0,270.0,243.5,277.5,235.5,285.0,227.0,292.5,219.0,299.5,211.0,307.0,203.0,315.0,195.0,322.5" stroke="black" stroke-width="2" fill="none" />
<polyline points="189.0,320.5,196.0,313.5,203.5,307.0,211.0,300.0,218.5,293.0,226.0,286.0,234.0,278.5,242.5,271.5,250.5,264.5,258.5,257.0,266.5,249.0,275.0,241.0,283.0,233.0,290.5,225.5,298.5,218.0,306.5,210.5,314.5,202.5,322.5,195.0,330.5,187.0,338.5,179.5" stroke="black" stroke-width="2" fill="none" />
<polyline points="341.0,179.5,333.0,180.0,324.5,181.0,316.0,182.5,307.5,183.5,299.0,184.5,291.0,185.0,282.5,186.0,274.5,186.0,266.0,186.5" stroke="black" stroke-width="2" fill="none" />
<polyline points="256.5,186.0,248.5,187.0" stroke="black" stroke-width="2" fill="none" />
<polyline points="242.0,176.5,250.0,176.5,258.5,176.5,266.5,176.0" stroke="black" stroke-width="2" fill="none" />
<polyline points="274.0,166.5,266.0,167.0,258.0,167.5,250.0,168.0,241.5,168.0,233.5,168.5" stroke="black" stroke-width="2" fill="none" />
<polyline points="226.5,164.0,234.5,163.0,242.5,162.5,250.0,161.5,258.0,161.0,265.5,160.5,274.0,160.0,282.0,159.5" stroke="black" stroke-width="2" fill="none" />
<polyline points="290.5,160.0,298.5,159.5,307.0,159.5" stroke="black" stroke-width="2" fill="none" />
<polyline points="313.0,161.5,321.0,165.5,329.0,165.5,337.0,173.5,333.0,177.5,338.0,185.5,343.0,193.5,343.5,201.5,336.5,209.5,333.0,216.5,327.0,227.5,324.0,235.0,321.5,248.0,315.0,256.0,311.0,264.5,306.5,272.5,310.5,280.5,313.5,288.5,316.0,297.0,318.5,304.5,312.5,312.5,315.5,316.5" stroke="black" stroke-width="2" fill="none" />
<polyline points="331.5,308.0,323.0,308.5,315.5,309.0,308.0,310.0,300.0,310.0,292.0,311.0,284.0,311.5,276.0,312.0,267.5,312.5,259.5,313.0,252.0,313.5,244.0,314.0,236.5,314.5,228.0,315.0,220.0,315.0,212.0,316.0,204.0,316.5,195.5,317.5,187.0,318.5" stroke="black" stroke-width="2" fill="none" />
<polyline points="189.0,315.0,197.0,316.0" stroke="black" stroke-width="2" fill="none" />
<polyline points="195.0,306.5,203.5,306.5,211.0,306.0,218.5,305.0" stroke="black" stroke-width="2" fill="none" />
<polyline points="228.5,306.0,236.0,305.0,243.5,304.5,251.0,304.0,259.0,303.0,267.0,303.0,274.5,302.0,282.0,301.0,290.0,300.5" stroke="black" stroke-width="2" fill="none" />
<polyline points="290.0,295.0,282.5,295.5,275.0,295.5,267.5,296.5,260.5,296.5,253.0,297.0,245.0,297.5,237.0,299.0,229.0,299.0" stroke="black" stroke-width="2" fill="none" />
<polyline points="227.5,288.5,235.5,288.0,243.0,287.0,251.0,286.5,259.0,286.5,267.0,286.5,275.5,285.5,284.0,285.0,292.0,284.5" stroke="black" stroke-width="2" fill="none" />
<polyline points="294.0,295.0,294.0,303.0,303.0,312.0,311.0,314.0" stroke="black" stroke-width="2" fill="none" />
<polyline points="305.0,317.5,297.0,315.5" stroke="black" stroke-width="2" fill="none" />
<polyline points="286.5,323.0,288.5,331.0,296.0,339.5,298.0,347.5,298.0,355.5,307.5,364.5,302.5,375.5,291.5,383.5,288.5,391.5,282.0,399.0" stroke="black" stroke-width="2" fill="none" />
<polyline points="301.0,349.5,304.5,341.5,295.5,331.5,293.5,323.0,291.5,314.5,285.5,318.5,277.5,323.5" stroke="black" stroke-width="2" fill="none" />
<polyline points="273.5,328.0,265.5,328.5,257.5,329.5,250.0,330.0,242.5,330.0,234.5,330.5" stroke="black" stroke-width="2" fill="none" />
<polyline points="231.0,332.5,231.5,340.5,231.5,348.5" stroke="black" stroke-width="2" fill="none" />
<polyline points="209.5,328.0,202.0,329.0,194.0,329.5" stroke="black" stroke-width="2" fill="none" />
<polyline points="217.0,334.0,209.0,339.0,213.5,333.0,215.5,325.5,216.5,317.0,215.5,306.5,218.5,298.5,218.5,290.5,220.0,282.0,222.0,274.0,222.0,266.0,220.5,261.0,212.5,261.0,204.5,262.0" stroke="black" stroke-width="2" fill="none" />
<polyline points="203.0,266.0,210.5,259.0,218.5,251.5,226.0,244.0,234.0,236.5,242.5,229.5,251.0,222.0,259.5,214.0,267.5,206.5,275.5,199.0,283.5,192.0,291.5,185.0,299.5,177.5,307.5,169.5,315.5,161.5,324.0,153.5,332.0,145.0,340.0,137.0,348.0,130.0" stroke="black" stroke-width="2" fill="none" />
<polyline points="345.5,136.0,337.5,136.5" stroke="black" stroke-width="2" fill="none" />
<polyline points="347.0,138.0,339.0,146.0,330.5,154.0,322.5,161.5,314.5,169.5,306.0,177.5,298.5,185.0,290.5,192.5,282.0,200.0,274.0,207.5,265.5,215.0,258.0,222.5,251.0,230.0,243.0,237.5,235.0,245.5,227.5,253.0,220.0,260.5,212.5,268.0,204.5,275.0,196.5,282.0" stroke="black" stroke-width="2" fill="none" />
<polyline points="196.5,279.0,204.5,278.5,212.0,278.5,219.5,278.5,226.5,278.0,234.5,277.0,242.0,276.5,250.0,276.5,258.0,276.0,266.5,275.5,274.5,275.0,282.5,274.0,290.5,273.5,298.0,272.5,306.0,272.0,313.5,271.5,322.0,271.0" stroke="black" stroke-width="2" fill="none" />
<polyline points="313.5,263.0,306.0,263.5,298.5,264.0,291.0,264.5,283.0,265.0,274.5,266.0,267.0,266.5,259.0,266.5,251.0,267.0,243.5,267.0,236.0,267.5,228.5,267.5,220.5,268.5,212.5,269.0,204.5,269.5,197.0,270.5" stroke="black" stroke-width="2" fill="none" />
<polyline points="203.5,282.0,211.0,281.5,219.5,280.5" stroke="black" stroke-width="2" fill="none" />
<polyline points="224.0,279.5,224.0,287.0,222.0,300.0" stroke="black" stroke-width="2" fill="none" />
<polyline points="219.5,290.0,211.0,291.5,203.0,292.0" stroke="black" stroke-width="2" fill="none" />
<polyline points="194.0,296.5,202.0,288.5,210.0,281.0,217.5,273.5,225.0,266.0,233.0,258.5,241.0,251.0,249.5,243.5,257.5,236.0,265.5,228.5,274.0,221.5,282.5,214.5,291.0,207.0,300.0,199.5,309.0,192.0,317.0,185.5,325.0,178.5,333.0,171.5,341.0,164.5,349.0,157.0" stroke="black" stroke-width="2" fill="none" />
<polyline points="346.5,145.0,339.0,145.5,331.5,145.5,324.0,145.5,316.0,146.0" stroke="black" stroke-width="2" fill="none" />
<polyline points="324.5,140.0,316.0,147.5,308.0,155.0,300.0,163.0,292.0,170.5,284.0,178.0,276.0,185.5,267.0,193.5,258.5,201.0,250.5,208.5,242.5,216.5,234.5,224.0,226.5,231.0,219.0,238.0,211.0,245.5,203.0,253.0" stroke="black" stroke-width="2" fill="none" />
<polyline points="202.5,257.0,211.0,249.5,219.0,241.5,227.5,234.5,236.0,227.0,244.0,220.5,252.0,213.0,260.0,205.5,268.0,198.5,276.5,191.0,284.0,183.0,292.0,175.5,299.5,168.5,307.0,161.5,315.5,153.5,323.5,145.5,331.5,137.5,339.5,129.5,348.0,121.5" stroke="black" stroke-width="2" fill="none" />
<polyline points="346.0,126.0,338.5,126.5" stroke="black" stroke-width="2" fill="none" />
<polyline points="335.5,121.5,331.5,129.5,337.5,121.5,345.5,125.0" stroke="black" stroke-width="2" fill="none" />
<polyline points="344.0,124.5,348.5,132.5,350.0,140.5,350.0,148.5,346.0,156.5,333.5,164.5,338.5,173.0,339.5,182.0,347.5,187.5" stroke="black" stroke-width="2" fill="none" />
<polyline points="355.0,192.5,347.0,192.5,339.0,193.0,331.5,194.0,323.5,194.5,315.5,195.0,307.0,195.5,298.5,196.0,290.5,196.5,283.0,197.5,274.5,198.0,266.5,198.5,258.5,199.0,251.0,199.0,243.0,199.5,235.5,200.0,227.0,200.0,219.0,200.5,210.5,201.0,202.5,201.5,195.0,202.0,187.0,203.5,179.5,204.5,172.0,205.0,164.0,206.0" stroke="black" stroke-width="2" fill="none" />
<polyline points="163.5,212.5,172.0,204.5,180.0,196.0,188.0,188.0,196.0,181.0,204.0,173.5,211.5,166.5,220.0,159.5,228.5,152.5,236.5,145.0,244.5,137.5,252.5,129.0,260.5,121.5,268.0,114.5,276.0,107.0" stroke="black" stroke-width="2" fill="none" />
<polyline points="282.0,107.5,274.0,107.5,265.5,108.0,258.0,108.5,250.5,109.0,243.0,109.5,235.0,110.0,226.5,111.0" stroke="black" stroke-width="2" fill="none" />
<polyline points="226.0,115.0,218.5,122.5,210.5,131.0,202.5,139.0,194.0,146.5,186.0,154.0,178.0,161.5,170.0,169.5" stroke="black" stroke-width="2" fill="none" />
<polyline points="172.0,163.0,179.5,162.5,188.0,162.5,196.0,162.0" stroke="black" stroke-width="2" fill="none" />
<polyline points="202.5,161.0,210.5,160.5,218.5,160.0" stroke="black" stroke-width="2" fill="none" />
<polyline points="219.0,153.5,227.0,153.0,235.0,153.0,242.5,152.5,250.5,152.0,258.0,151.0,266.5,150.5,275.5,149.5,284.0,148.5,292.0,148.5" stroke="black" stroke-width="2" fill="none" />
<polyline points="289.5,145.5,286.5,153.5,278.5,162.0,270.5,170.0,264.0,178.0,256.0,186.0" stroke="black" stroke-width="2" fill="none" />
<polyline points="253.0,189.5,245.0,190.0,237.0,190.5,229.0,191.5,221.5,192.0,213.5,193.0,205.0,194.0,197.0,194.5,189.0,195.0,181.0,195.5" stroke="black" stroke-width="2" fill="none" />
<polyline points="188.0,198.5,196.0,193.0,204.0,198.0" stroke="black" stroke-width="2" fill="none" />
<polyline points="203.5,200.5,211.5,199.5" stroke="black" stroke-width="2" fill="none" />
<polyline points="215.0,197.5,205.0,205.5,209.5,204.0,217.0,197.0,225.0,199.5,233.0,197.5,241.0,194.5,248.5,199.5,256.5,196.5,264.5,199.5,272.0,198.5,280.0,191.5,288.0,193.5,295.5,197.5,303.0,191.5,311.0,193.0,319.0,200.0,326.0,202.0,331.0,213.5,337.0,221.5" stroke="black" stroke-width="2" fill="none" />
<polyline points="347.0,226.0,339.5,226.5,332.0,227.0,324.5,228.0,316.5,228.0,308.0,229.0,300.0,229.5,292.0,230.0,283.5,230.0,275.5,230.5,267.5,231.0,260.0,231.5,252.0,232.0,244.0,232.5,235.5,233.0,227.5,233.5,219.5,234.5,211.5,235.5,203.0,236.5,195.5,237.5,188.0,237.5,180.0,238.0,172.0,238.0,164.0,238.5" stroke="black" stroke-width="2" fill="none" />
<polyline points="170.5,238.0,178.5,230.5,187.0,223.0,195.5,216.0,204.5,208.5,212.5,201.0,220.5,193.5,228.0,186.0,236.0,178.0,244.0,170.0,252.0,162.0,259.5,154.0,267.0,146.5,274.5,138.5,282.0,130.5,290.0,123.0" stroke="black" stroke-width="2" fill="none" />
<polyline points="293.0,121.5,304.5,130.0,306.5,138.0,309.5,139.0,304.5,152.0,306.5,160.5,313.5,168.5,323.5,169.0" stroke="black" stroke-width="2" fill="none" />
<polyline points="334.0,165.0,342.0,161.0" stroke="black" stroke-width="2" fill="none" />
<polyline points="324.0,132.0,316.0,139.5,308.0,146.5,300.5,153.5,292.5,161.0,284.0,168.5,276.5,176.5,268.5,184.0,261.0,191.0,253.0,198.5,245.5,206.0,237.0,213.5,228.5,221.5,220.0,229.5,211.0,236.5,202.5,243.5,194.0,251.0" stroke="black" stroke-width="2" fill="none" />
<polyline points="185.5,250.0,193.5,249.5,202.0,249.5,210.5,248.5,218.5,247.5,226.5,246.5,235.0,246.0,244.0,245.5,252.0,244.5,260.5,244.0,268.5,243.5,276.5,243.0,284.0,243.0,292.0,243.0,299.5,242.5,307.0,242.5,315.0,242.5,323.5,242.5" stroke="black" stroke-width="2" fill="none" />
<polyline points="315.5,210.5,308.0,211.0,300.5,211.0,292.0,211.5,284.0,212.0,276.5,212.5,268.0,212.5,260.0,213.5,253.0,214.0,245.5,214.0,237.5,214.0,229.0,215.0,221.0,215.5,213.0,216.5,205.0,217.5,197.0,219.0,189.0,219.5" stroke="black" stroke-width="2" fill="none" />
<polyline points="189.0,208.0,181.5,208.5,173.5,209.5" stroke="black" stroke-width="2" fill="none" />
<polyline points="173.0,202.0,181.5,201.5,189.5,200.5" stroke="black" stroke-width="2" fill="none" />
<polyline points="195.5,193.5,188.0,201.5,183.5,209.0,174.5,215.5,170.5,223.5,177.5,223.0,179.5,231.0,175.5,236.0,173.5,241.0" stroke="black" stroke-width="2" fill="none" />
<polyline points="182.0,241.0,184.0,249.5,188.5,257.0,197.5,265.5,195.5,273.5,192.0,281.5,188.0,289.5,185.0,298.0,185.0,306.5,184.5,314.5,183.0,322.5,185.0,330.5,192.0,338.0" stroke="black" stroke-width="2" fill="none" />
<polyline points="194.5,306.0,202.5,311.0,210.5,311.0" stroke="black" stroke-width="2" fill="none" />
<polyline points="219.5,297.5,211.0,298.0,203.0,298.5,195.0,298.5" stroke="black" stroke-width="2" fill="none" />
<polyline points="186.0,300.0,194.5,299.5,203.0,299.0,211.5,298.5,220.0,298.5,228.0,298.0,236.0,297.0,243.5,297.0,251.5,297.0,259.5,296.5,267.5,295.5,275.5,294.5,283.0,294.0,291.5,293.5,300.0,293.0,308.0,293.0,316.0,292.5,323.5,292.0,331.5,291.5" stroke="black" stroke-width="2" fill="none" />
<polyline points="324.5,284.5,317.0,285.5,309.5,286.0,301.5,286.5,293.0,287.0,285.0,287.0,277.0,287.0,269.0,287.5,261.0,287.5,252.5,288.5,244.0,289.0,236.0,289.5,228.0,290.0,219.5,291.0,211.5,291.5,203.0,291.5,195.0,291.5,187.0,292.0" stroke="black" stroke-width="2" fill="none" />
<polyline points="211.5,272.5,219.5,271.5" stroke="black" stroke-width="2" fill="none" />
<polyline points="228.0,273.0,236.0,273.0,243.5,272.5,251.5,272.5,260.0,272.0,269.0,271.5,277.0,271.0,284.5,270.5" stroke="black" stroke-width="2" fill="none" />
<polyline points="284.0,277.0,275.0,277.5,266.5,278.5,258.0,278.5,250.0,279.0,242.5,279.0,234.5,279.5,227.0,280.0" stroke="black" stroke-width="2" fill="none" />
<polyline points="227.0,266.0,235.5,265.5,244.0,266.0,252.5,265.5,261.5,264.5,270.0,264.0,277.5,263.5,285.0,262.5" stroke="black" stroke-width="2" fill="none" />
<polyline points="286.5,261.5,294.5,260.5,302.5,261.0,311.5,260.0,319.0,252.0" stroke="black" stroke-width="2" fill="none" />
<polyline points="300.5,264.0,292.5,264.0" stroke="black" stroke-width="2" fill="none" />
<polyline points="288.0,262.0,287.0,270.5,287.0,278.5,289.0,286.0,291.5,294.0,292.5,302.0,294.0,309.5,297.0,320.5,294.0,333.5,296.0,337.5,305.5,335.5,308.5,339.5,318.0,334.5" stroke="black" stroke-width="2" fill="none" />
<polyline points="304.0,342.5,304.0,350.5,304.5,358.0,300.5,366.0,296.5,374.0" stroke="black" stroke-width="2" fill="none" />
<polyline points="218.0,264.0,209.5,263.5" stroke="black" stroke-width="2" fill="none" />
<polyline points="164.0,234.5,173.0,227.0,181.0,220.5,189.0,213.5,197.0,206.5,205.0,199.5,213.0,192.0,221.0,184.5,229.0,177.0,236.5,170.0,243.5,163.0,251.0,155.5,259.0,147.5,266.5,139.0,274.5,131.0,282.0,123.5,290.5,116.0" stroke="black" stroke-width="2" fill="none" />
<polyline points="285.5,121.0,278.0,122.0" stroke="black" stroke-width="2" fill="none" />
<polyline points="276.5,116.5,268.5,124.0,260.0,131.5,252.0,138.5,243.5,145.5,234.5,153.0,227.0,160.0,219.5,167.5,211.5,175.0,203.0,182.0,195.0,189.0,187.0,197.0,178.5,205.0,170.5,212.5,162.5,220.5" stroke="black" stroke-width="2" fill="none" />
<polyline points="156.5,223.0,164.5,221.0,171.0,228.0,171.5,222.0" stroke="black" stroke-width="2" fill="none" />
<polyline points="170.0,218.5,178.0,214.5" stroke="black" stroke-width="2" fill="none" />
<polyline points="164.0,228.5,172.0,221.0,179.5,214.0,187.5,207.0,195.0,199.5,203.0,192.5,211.0,184.5,219.0,176.5,227.0,169.0,235.0,161.5,243.0,154.0,251.0,146.5,258.5,138.5,266.5,131.5,275.0,124.5,283.0,117.0" stroke="black" stroke-width="2" fill="none" />
<polyline points="283.0,113.0,274.0,111.5,266.0,112.5" stroke="black" stroke-width="2" fill="none" />
<polyline points="268.5,111.0,260.5,111.5,252.0,112.5,244.0,113.5" stroke="black" stroke-width="2" fill="none" />
<polyline points="243.0,108.0,235.5,115.5,227.5,123.0,219.0,130.5,211.0,138.0,202.5,146.0,195.0,153.5,187.0,161.5,179.5,169.0,171.5,177.0" stroke="black" stroke-width="2" fill="none" />
<polyline points="170.5,186.0,179.0,185.5,187.5,185.5,195.5,185.0,203.0,184.5,211.5,183.5,219.5,182.5,227.5,181.5,235.5,180.5,244.0,180.5" stroke="black" stroke-width="2" fill="none" />
<polyline points="235.0,175.5,227.5,175.5,219.5,175.5,212.0,176.0,204.0,176.5,196.0,176.5,188.5,177.5,181.0,177.5" stroke="black" stroke-width="2" fill="none" />
<polyline points="172.5,190.0,180.5,182.5,188.5,175.0,196.5,167.5,204.5,160.0,212.5,152.0,220.5,144.5,228.0,137.0,235.5,129.5,243.5,121.5,252.0,113.5,260.0,106.5" stroke="black" stroke-width="2" fill="none" />
<polyline points="268.0,105.5,259.5,113.5,251.0,121.0,243.0,128.5,235.0,136.5,227.0,144.0,219.0,151.5,211.0,158.5,203.5,165.5,196.0,172.5,188.0,180.5,179.5,188.5,171.5,196.5,163.5,204.5" stroke="black" stroke-width="2" fill="none" />
<polyline points="165.0,196.5,172.5,196.0,179.5,195.5,187.0,195.0,195.5,194.5,203.0,194.5,210.5,194.0,218.5,194.0,226.5,194.0,234.0,193.5,242.0,192.5,250.0,192.0,257.5,191.0,265.5,190.0,274.0,189.0,282.0,188.5,290.0,188.0,298.0,188.0,306.5,187.5,315.0,187.0,323.0,186.0,330.5,185.5,338.5,185.0,346.0,185.0,354.0,184.5" stroke="black" stroke-width="2" fill="none" />
<polyline points="347.5,178.5,339.5,178.5,332.0,179.0,324.0,179.0,315.5,180.0,307.5,180.0,299.0,180.5,290.5,181.5,282.0,182.5,274.0,183.5,266.5,184.0,259.0,185.0,251.5,185.5,243.0,185.5,235.5,186.5,227.5,187.0,219.5,187.0,211.5,187.0,204.0,187.0,196.0,187.5,187.5,187.5,179.5,188.0,171.0,188.0,163.5,188.5" stroke="black" stroke-width="2" fill="none" />
<polyline points="163.0,191.5,170.5,184.0,179.0,176.5,187.5,168.5,195.0,161.0,203.0,153.5,211.0,145.5,219.0,138.5,227.0,131.0,235.5,124.0,243.5,117.0,251.0,109.0" stroke="black" stroke-width="2" fill="none" />
<polyline points="244.0,123.0,252.0,122.5,259.5,122.0,267.5,121.5" stroke="black" stroke-width="2" fill="none" />
<polyline points="269.0,118.0,269.0,126.0,268.5,133.5,273.5,143.5,281.5,144.0" stroke="black" stroke-width="2" fill="none" />
<polyline points="289.0,146.0,297.0,145.5,305.0,145.0" stroke="black" stroke-width="2" fill="none" />
<polyline points="299.5,154.0,308.0,153.5,316.0,152.5,324.0,152.0,332.0,152.0,340.0,152.0,348.0,151.5" stroke="black" stroke-width="2" fill="none" />
<polyline points="307.5,135.5,300.0,136.0,292.5,136.5,285.0,136.5,277.0,137.0" stroke="black" stroke-width="2" fill="none" />
<polyline points="277.5,129.5,285.0,128.5,293.0,128.5,301.0,128.5" stroke="black" stroke-width="2" fill="none" />
<polyline points="301.0,112.5,293.0,114.0,285.0,114.0,277.0,115.0,268.5,115.5,260.0,115.5,251.5,115.5,243.0,115.0,234.5,116.0,226.5,116.5,218.5,116.5,210.5,117.0,203.0,117.5" stroke="black" stroke-width="2" fill="none" />
<polyline points="212.0,117.5,202.0,125.0,205.0,122.0,214.0,117.0,222.5,112.5,233.5,109.5" stroke="black" stroke-width="2" fill="none" />
<polyline points="234.0,116.5,234.0,124.5,234.0,132.5" stroke="black" stroke-width="2" fill="none" />
<polyline points="244.0,129.5,251.5,129.0,259.5,128.0,268.0,128.0" stroke="black" stroke-width="2" fill="none" />
<polyline points="266.5,145.0,258.5,145.5,251.0,146.0,242.5,146.0" stroke="black" stroke-width="2" fill="none" />
<polyline points="244.5,138.0,252.5,137.0,260.0,136.5,267.5,136.0" stroke="black" stroke-width="2" fill="none" />
<polyline points="283.5,154.5,276.0,162.5,268.0,170.5,261.0,179.0,252.5,187.0,244.5,187.0,238.5,179.0,230.5,171.0,223.0,163.5,215.0,156.0,211.5,148.0,214.5,140.5" stroke="black" stroke-width="2" fill="none" />
<polyline points="216.0,142.5,224.0,142.5,232.0,142.5" stroke="black" stroke-width="2" fill="none" />
<polyline points="237.0,128.0,229.0,128.0,221.0,128.0,213.0,128.5" stroke="black" stroke-width="2" fill="none" />
<polyline points="204.0,137.5,212.0,137.0,220.0,136.5,227.5,136.0,235.5,135.5" stroke="black" stroke-width="2" fill="none" />
<polyline points="226.5,140.0,218.5,140.0,210.5,143.0" stroke="black" stroke-width="2" fill="none" />
<polyline points="211.5,146.0,203.5,146.5" stroke="black" stroke-width="2" fill="none" />
<polyline points="199.5,144.0,200.0,151.5" stroke="black" stroke-width="2" fill="none" />
<polyline points="203.0,153.0,211.5,152.5" stroke="black" stroke-width="2" fill="none" />
<polyline points="213.5,148.5,221.0,156.0,229.0,164.0,236.5,171.5,244.5,179.0" stroke="black" stroke-width="2" fill="none" />
<polyline points="237.0,198.5,231.0,199.5" stroke="black" stroke-width="2" fill="none" />
<polyline points="227.5,203.0,235.5,202.5" stroke="black" stroke-width="2" fill="none" />
<polyline points="234.0,209.0,242.0,209.0" stroke="black" stroke-width="2" fill="none" />
<polyline points="270.5,200.5,279.5,192.5" stroke="black" stroke-width="2" fill="none" />
<polyline points="299.0,197.5,307.0,199.0,315.5,206.0" stroke="black" stroke-width="2" fill="none" />
<polyline points="302.5,192.5,302.0,200.5,312.0,208.5,326.0,211.5,316.0,216.5,316.0,224.5,312.0,232.0,319.0,239.5,331.0,240.5" stroke="black" stroke-width="2" fill="none" />
<polyline points="349.0,219.0,341.0,219.5,333.0,221.0,325.0,221.0,317.0,222.0,308.5,222.5,300.0,222.5,291.5,222.5,283.0,222.0,274.5,223.0,266.5,223.5,258.5,223.5,250.5,224.0,243.0,224.5,235.0,224.5,227.0,225.0,219.0,225.5,211.0,226.0,202.5,227.0,195.0,227.5,187.0,228.5,179.0,229.0,171.0,230.0,163.0,230.5" stroke="black" stroke-width="2" fill="none" />
<polyline points="155.0,222.0,163.0,221.5,171.0,221.0,179.5,220.5,187.5,220.5,195.0,220.0,204.0,220.0,212.0,219.5,220.5,219.0,228.5,218.5,236.5,218.0,244.5,217.5,252.0,217.0,260.0,216.5,268.0,216.0,276.0,216.0,284.0,215.0,292.0,214.5,299.5,214.0,307.0,213.5,315.0,213.5,323.0,212.5,331.5,211.5,340.0,210.0,348.0,209.0" stroke="black" stroke-width="2" fill="none" />
<polyline points="351.5,208.5,343.5,211.5" stroke="black" stroke-width="2" fill="none" />
<polyline points="315.5,119.0,307.0,119.0,299.0,119.5,291.5,120.0,283.5,121.0,275.5,121.0,267.5,121.5,259.5,122.0,251.0,122.5,243.0,123.0,234.5,123.0,227.0,123.5,220.0,124.0,212.0,124.5,204.0,125.0,196.0,125.5" stroke="black" stroke-width="2" fill="none" />
<polyline points="197.5,130.0,189.5,137.5,181.0,145.0,173.0,153.0,164.5,161.0" stroke="black" stroke-width="2" fill="none" />
<polyline points="162.5,158.0,170.5,158.0,178.5,157.5,186.0,157.5,194.0,157.0,202.5,156.0,211.0,156.0,219.5,156.0,227.5,155.5,235.5,155.5,243.5,155.0,251.0,154.5,259.0,154.0,267.0,153.0,275.5,152.0,283.0,151.0,291.0,150.0,299.0,149.5,307.0,149.5,315.0,149.5,323.5,149.0,331.5,148.5,340.0,148.5,348.5,148.0" stroke="black" stroke-width="2" fill="none" />
<polyline points="348.5,171.5,340.0,172.0,331.5,171.5,323.0,172.0,315.5,173.0,307.5,173.5,300.0,174.0,292.0,174.0,283.5,174.5,275.5,175.5,267.5,176.5,259.0,177.0,251.0,177.5,243.0,177.5,235.0,178.5,227.0,179.0,219.0,179.5,210.5,179.5,202.5,179.5,194.5,179.5,186.5,179.5,178.5,180.0,171.0,180.5,163.0,181.0" stroke="black" stroke-width="2" fill="none" />
<polyline points="170.5,161.0,178.5,153.0,187.0,145.5,195.5,137.5,203.5,130.0,212.0,123.0,219.5,115.5" stroke="black" stroke-width="2" fill="none" />
<polyline points="214.0,110.0,202.0,118.0,194.5,126.0,195.5,136.0,198.0,144.5,198.0,152.5,195.5,160.5" stroke="black" stroke-width="2" fill="none" />
<polyline points="204.0,169.0,211.5,168.5,219.0,168.0,227.0,167.0" stroke="black" stroke-width="2" fill="none" />
<polyline points="195.0,153.5,187.0,153.5,179.0,154.0,170.5,155.0,162.5,155.5" stroke="black" stroke-width="2" fill="none" />
<polyline points="164.5,154.0,173.0,146.5,181.0,139.0" stroke="black" stroke-width="2" fill="none" />
<polyline points="180.5,131.5,172.5,139.0,164.5,146.0" stroke="black" stroke-width="2" fill="none" />
<polyline points="163.0,147.0,171.0,146.5,179.0,145.5,186.5,145.0,195.0,144.5" stroke="black" stroke-width="2" fill="none" />
<polyline points="170.0,132.0,162.0,139.0" stroke="black" stroke-width="2" fill="none" />
<polyline points="163.0,138.0,171.0,137.0,179.5,136.5" stroke="black" stroke-width="2" fill="none" />
<polyline points="170.5,126.0,162.5,126.5" stroke="black" stroke-width="2" fill="none" />
<polyline points="164.5,122.5,157.5,130.5,155.5,138.0,152.5,146.0,155.5,154.5,163.0,162.5,167.0,170.5,163.5,178.0,160.5,186.0,158.5,194.0,160.5,202.0,156.5,210.0,153.5,218.5,160.0,226.5,159.5,234.5,159.5,242.5,164.5,243.5,172.0,242.5,174.5,237.5,185.5,243.5" stroke="black" stroke-width="2" fill="none" />
<polyline points="156.0,214.0,164.0,213.0,171.5,212.0,179.0,211.5,186.5,211.5,194.5,211.0,203.0,211.0,211.0,211.5,219.0,211.5,226.5,211.5,234.5,211.0,242.5,210.5,250.5,209.0,259.0,208.5,267.5,208.5,275.5,208.0,283.0,207.5,291.0,206.5,298.5,205.5,306.5,204.0,315.0,203.5,323.0,203.0,331.0,203.0,338.5,202.5,346.5,202.0" stroke="black" stroke-width="2" fill="none" />
<polyline points="354.0,138.5,346.0,139.0,337.5,139.5,329.5,140.0,321.5,140.5,313.5,141.5,305.5,141.5,297.5,142.0,289.0,142.5,281.0,143.0,273.0,143.5,265.0,144.0,257.0,144.0,249.5,144.5,242.5,145.5,235.0,146.0,226.5,146.5,219.0,146.5,211.5,146.5,204.0,146.5,196.5,146.5,189.0,146.5,181.5,146.0,173.5,146.5,165.5,147.0,157.5,147.5" stroke="black" stroke-width="2" fill="none" />
<polyline points="155.5,141.5,163.5,140.5,172.0,140.0,180.5,140.0,188.5,140.0,196.5,139.5,204.5,139.5,212.5,138.0,220.0,137.5,228.0,137.0,236.0,136.5,244.0,136.0,252.0,135.5,260.0,135.0,267.0,134.5,274.5,134.0,283.0,134.0,291.0,133.5,299.5,133.0,307.5,132.5,315.5,132.0,323.5,132.0,331.5,131.0,339.0,130.5,347.0,130.0,355.5,130.0" stroke="black" stroke-width="2" fill="none" />
<polyline points="356.5,121.5,348.5,122.5,341.0,123.0,333.0,123.5,325.0,124.0,317.0,124.5,309.0,125.0,301.0,125.0,292.5,125.5,284.5,126.0,277.0,126.0,269.0,126.0,261.0,126.5,253.0,127.0,245.0,128.0,237.0,128.5,229.0,129.0,220.5,129.5,212.5,130.0,204.0,130.5,196.5,130.5,188.5,131.0,180.0,131.5,172.0,132.0,163.5,132.0,155.5,132.5" stroke="black" stroke-width="2" fill="none" />
<polyline points="157.5,128.5,165.5,122.5,173.5,126.0,182.0,132.0,190.0,131.5,198.0,123.5,206.0,117.5,213.5,111.0,221.5,108.5,229.5,105.0,238.0,104.0,245.5,103.0,253.5,103.5,261.5,103.5,269.5,105.5,277.0,106.0,285.5,109.0,294.0,111.5,302.5,116.5,310.5,124.0,318.5,129.0,326.5,131.0" stroke="black" stroke-width="2" fill="none" />
<polyline points="315.0,131.0,299.5,119.0,284.5,111.5" stroke="black" stroke-width="2" fill="none" />
<polyline points="268.5,108.5,267.5,117.0,267.5,124.5,267.5,133.0,267.0,141.5,276.5,139.5,284.5,140.0,292.0,143.5" stroke="black" stroke-width="2" fill="none" />
<polyline points="236.5,132.5,236.5,124.5,236.5,116.5" stroke="black" stroke-width="2" fill="none" />
<polyline points="175.0,132.5,170.0,124.5" stroke="black" stroke-width="2" fill="none" />
<polyline points="159.5,155.0,167.5,162.0,174.5,168.0,170.5,176.0,167.5,184.0,170.5,192.5,167.5,200.0,163.5,208.0,166.0,214.0,164.0,225.0,165.0,233.0,165.0,241.0" stroke="black" stroke-width="2" fill="none" />
<polyline points="156.5,209.0,162.5,192.0,172.5,189.0,176.5,189.0" stroke="black" stroke-width="2" fill="none" />
<polyline points="3.0,3.0,11.0,3.0,19.0,3.0,27.0,3.0,35.0,3.0,43.0,3.0,50.5,3.5,58.5,3.5,67.0,3.5,75.0,3.5,83.0,3.5,91.0,3.5,99.0,3.5,107.0,3.5,115.0,3.5,123.0,3.5,131.0,3.5,138.5,3.5,146.5,3.5,155.0,3.5,163.0,3.5,171.0,3.0,178.5,3.0,186.0,3.0,194.0,3.5,201.5,3.5,209.5,3.5,217.5,3.5,226.0,4.0,234.5,3.5,242.5,3.5,250.5,3.5,258.0,4.0,266.0,4.0,273.5,4.0,281.0,4.0,289.0,4.0,297.0,4.0,305.0,4.0,312.5,3.5,320.0,4.0,328.5,4.0,337.0,4.0,345.5,4.0,353.5,4.0,361.5,3.5,370.0,4.0,378.0,4.0,386.0,4.0,394.0,4.0,402.0,4.5,410.5,4.0,418.5,4.0,426.5,4.0,434.5,3.5,442.5,3.0,450.5,3.0,459.0,2.5,467.5,2.5,475.0,2.5,483.0,2.5,491.0,2.5,499.0,2.5,507.0,2.5,513.5,4.5,513.5,13.0,513.5,21.5,513.0,30.0,513.0,38.5,513.0,46.5,513.0,54.5,513.0,62.5,512.5,70.5,512.0,78.0,512.0,86.0,512.0,94.0,512.0,101.5,512.0,109.0,512.0,117.0,511.5,124.5,511.5,132.5,511.5,141.0,512.0,149.0,512.5,156.5,513.0,164.5,513.5,173.0,514.0,180.5,514.0,188.5,514.5,196.5,514.5,204.0,515.0,212.0,514.5,220.0,514.5,228.5,514.0,237.0,514.5,245.5,514.5,253.5,514.5,261.5,514.0,269.5,514.0,277.5,514.0,285.0,513.5,293.0,513.5,301.0,514.0,309.0,514.0,317.0,514.5,325.0,514.5,333.0,514.5,341.0,514.0,349.0,514.0,357.0,514.0,365.0,514.0,373.0,514.0,381.0,514.0,389.0,514.0,397.5,514.0,405.5,514.0,413.0,514.5,421.5,514.5,429.0,514.5,437.0,515.0,445.0,515.0,453.0,514.5,461.0,514.0,469.0,513.5,477.5,513.5,486.0,513.0,494.0,513.0,502.0,513.0,510.0" stroke="black" stroke-width="2" fill="none" />
</svg>